# xmcd
#
# Track frame offsets:
#	150
#	16918
#	33239
#	65695
#	76859
#	96766
#	118003
#	137171
#	160005
#	178526
#	199861
#
# Disc length: 2938 seconds
#
# Revision: 1
# Processed by: cddbd v1.5.2PL0 Copyright (c) Steve Scherf et al.
# Submitted via: audiograbber 1.83.01
#
DISCID=880b780b
DTITLE=John Doe Trio - Stranger (UK)
DYEAR=2016
DGENRE=Blues
TTITLE0='Till My Baby Comes
TTITLE1=Long Long Way From Georgia
TTITLE2=No Need For You To Cry
TTITLE3=Teasing Woman Blues
TTITLE4=Devil Inside You Soul
TTITLE5=Blues Are Coming Back
TTITLE6=Don't Matter
TTITLE7=Stranger
TTITLE8=Calling Song
TTITLE9=Flamzag
TTITLE10=Knocking At My Door
EXTD=
EXTT0=
EXTT1=
EXTT2=
EXTT3=
EXTT4=
EXTT5=
EXTT6=
EXTT7=
EXTT8=
EXTT9=
EXTT10=
PLAYORDER=
